# Blender v2.80 (sub 54) OBJ File: 'kindergarden.blend'
# www.blender.org
mtllib kindergarden.mtl
o Cube
v -4.958171 -0.004156 4.958171
v -4.958171 0.004156 4.958171
v -4.958171 -0.004156 -4.958171
v -4.958171 0.004156 -4.958171
v 4.958171 -0.004156 4.958171
v 4.958171 0.004156 4.958171
v 4.958171 -0.004156 -4.958171
v 4.958171 0.004156 -4.958171
v -1.509289 0.061160 2.618856
v -2.181229 0.609797 1.946916
v -1.932590 0.646578 1.728308
v -1.275665 0.061160 2.385233
v -1.947606 0.609797 1.713292
v -1.480513 0.040812 2.647632
v -1.465497 0.077594 2.662647
v -1.246890 0.040812 2.414008
v -1.231874 0.077594 2.429024
v -1.446746 0.023541 2.681399
v -1.437878 0.064118 2.690267
v -1.213122 0.023541 2.447776
v -1.204254 0.064118 2.456644
v -1.414150 0.016043 2.713995
v -1.409726 0.058051 2.718419
v -1.180526 0.016043 2.480372
v -1.176102 0.058051 2.484796
v -1.377168 0.015043 2.750977
v -1.376122 0.057488 2.752023
v -1.143545 0.015043 2.517354
v -1.142499 0.057488 2.518399
v -1.135256 0.006218 2.992889
v -1.134211 0.048663 2.993934
v -0.901633 0.006218 2.759265
v -0.900587 0.048663 2.760311
v -2.428054 0.649400 1.700091
v -2.429458 0.606975 1.698687
v -2.195834 0.606975 1.465064
v -2.194431 0.649400 1.466467
v -1.304629 0.061160 2.414196
v -1.479156 0.061160 2.588724
v -2.151097 0.609797 1.916783
v -1.976569 0.609797 1.742256
v -2.136081 0.646578 1.931799
v -1.275853 0.040812 2.442972
v -1.450381 0.040812 2.617499
v -1.435365 0.077594 2.632515
v -1.260837 0.077594 2.457987
v -1.242086 0.023541 2.476739
v -1.416613 0.023541 2.651267
v -1.407745 0.064118 2.660135
v -1.233218 0.064118 2.485607
v -1.209490 0.016043 2.509335
v -1.384017 0.016043 2.683863
v -1.379593 0.058051 2.688287
v -1.205066 0.058051 2.513759
v -1.172508 0.015043 2.546317
v -1.347036 0.015043 2.720845
v -1.345990 0.057488 2.721890
v -1.171462 0.057488 2.547363
v -0.930596 0.006218 2.788229
v -1.105124 0.006218 2.962756
v -1.104078 0.048663 2.963802
v -0.929551 0.048663 2.789274
v -2.399325 0.606975 1.668555
v -2.224798 0.606975 1.494027
v -2.223394 0.649400 1.495431
v -2.397922 0.649400 1.669959
v -1.973261 0.006622 1.745564
v -1.944298 0.006622 1.716600
v -2.221490 0.003800 1.497335
v -2.192526 0.003800 1.468372
v -2.426150 0.003800 1.701995
v -2.177921 0.006622 1.950224
v -2.147789 0.006622 1.920091
v -2.396017 0.003800 1.671863
v -2.231778 0.874572 1.836102
v -2.261910 0.874572 1.866235
v -2.299768 0.877393 1.768112
v -2.329901 0.877393 1.798244
v -2.096277 0.877393 1.564621
v -2.028287 0.874572 1.632611
v -2.057250 0.874572 1.661575
v -2.125240 0.877393 1.593585
v -2.166214 0.646578 1.961931
v -1.289613 0.097941 2.429212
v -1.961554 0.646578 1.757271
v -1.494273 0.097941 2.633872
v -1.260649 0.097941 2.400249
v -1.464141 0.097941 2.603740
v -1.462445 0.175902 2.665699
v -2.198796 0.724539 1.929349
v -1.965172 0.724539 1.695726
v -1.228822 0.175902 2.432076
v -1.257785 0.175902 2.461040
v -2.168663 0.724539 1.899217
v -1.432313 0.175902 2.635567
v -1.994135 0.724539 1.724689
v -1.268679 0.182955 2.450146
v -1.239715 0.182955 2.421183
v -1.239904 0.162608 2.478921
v -1.210940 0.162608 2.449958
v -1.473339 0.182955 2.654806
v -1.444563 0.162608 2.683581
v -1.212284 0.149132 2.506541
v -1.183320 0.149132 2.477578
v -1.416944 0.149132 2.711201
v -1.184132 0.143065 2.534693
v -1.155168 0.143065 2.505729
v -1.388792 0.143065 2.739353
v -1.150528 0.142502 2.568296
v -1.121565 0.142502 2.539333
v -1.355188 0.142502 2.772957
v -1.117669 0.133677 2.601156
v -1.088705 0.133677 2.572193
v -1.322329 0.133677 2.805816
v -1.443207 0.182955 2.624674
v -1.414431 0.162608 2.653449
v -1.386811 0.149132 2.681069
v -1.358659 0.143065 2.709221
v -1.325056 0.142502 2.742824
v -1.292196 0.133677 2.775684
v -4.585829 0.004157 0.109562
v -4.585829 2.004157 0.109562
v -4.585829 0.004157 -4.059145
v -4.585829 2.004157 -4.059145
v 4.585829 0.004157 0.109562
v 4.585829 2.004157 0.109562
v 4.585829 0.004157 -4.059145
v 4.585829 2.004157 -4.059145
v -3.302213 0.004158 0.109561
v -0.366451 0.004158 0.109561
v -0.366451 1.804158 0.109561
v -3.302213 1.804158 0.109561
v 0.793524 0.004158 0.109561
v 3.465447 0.004158 0.109561
v 3.465447 1.804158 0.109561
v 0.793524 1.804158 0.109561
v -3.302213 0.004158 0.009561
v -0.366451 0.004158 0.009561
v -0.366451 1.804158 0.009561
v -3.302213 1.804158 0.009561
v 0.793524 0.004158 0.009561
v 3.465447 0.004158 0.009561
v 3.465447 1.804158 0.009561
v 0.793524 1.804158 0.009561
v 1.459612 0.004158 0.009561
v 1.542161 0.004158 0.009561
v 1.542161 1.804158 0.009561
v 1.459612 1.804158 0.009561
v 1.459612 0.004158 0.059561
v 1.542161 0.004158 0.059561
v 1.542161 1.804158 0.059561
v 1.459612 1.804158 0.059561
v 4.585829 1.904157 -3.850709
v 4.585829 0.104157 -3.850709
v 4.585829 0.104157 -0.098874
v 4.585829 1.904157 -0.098874
v 4.485829 1.904157 -3.850709
v 4.485829 0.104157 -3.850709
v 4.485829 0.104157 -0.098874
v 4.485829 1.904157 -0.098874
v 3.700413 0.004157 -4.059145
v 0.394393 0.004157 -4.059145
v -0.616501 0.004157 -4.059145
v -3.763298 0.004157 -4.059145
v -4.585829 1.904157 -3.850710
v -4.585829 1.904157 -0.098874
v -4.585829 0.104157 -0.098874
v -4.585829 0.104157 -3.850710
v 3.535113 0.104157 -4.059145
v 0.559694 0.104157 -4.059145
v -0.773841 0.104157 -4.059145
v -3.605958 0.104157 -4.059145
v -3.605958 1.904157 -4.059145
v -0.773841 1.904157 -4.059145
v 0.559694 1.904157 -4.059145
v 3.535113 1.904157 -4.059145
v 3.535113 0.104157 -3.959145
v 0.559694 0.104157 -3.959145
v -0.773841 0.104157 -3.959145
v -3.605958 0.104157 -3.959145
v -3.605958 1.904157 -3.959145
v -0.773841 1.904157 -3.959145
v 0.559694 1.904157 -3.959145
v 3.535113 1.904157 -3.959145
v -4.485829 0.104157 -3.850710
v -4.485829 0.104157 -0.098874
v -4.485829 1.904157 -0.098874
v -4.485829 1.904157 -3.850710
v -4.337552 0.004064 4.684031
v -4.337552 0.736398 4.684031
v -4.337552 0.004064 0.109957
v -4.337552 0.736398 0.109957
v -4.175363 0.004064 4.684031
v -4.175363 0.736398 4.684031
v -4.175363 0.004064 0.109957
v -4.175363 0.736398 0.109957
v 4.272956 0.004064 4.684031
v 4.272956 0.736398 4.684031
v 4.272956 0.004064 0.109957
v 4.272956 0.736398 0.109957
v 4.435145 0.004064 4.684031
v 4.435145 0.736398 4.684031
v 4.435145 0.004064 0.109957
v 4.435145 0.736398 0.109957
v 4.273026 0.004064 4.684153
v 4.273026 0.736398 4.684153
v 2.192302 0.004064 4.684153
v 2.192302 0.736398 4.684153
v 4.273026 0.004064 4.521964
v 4.273026 0.736398 4.521964
v 2.192302 0.004064 4.521964
v 2.192302 0.736398 4.521964
v 1.535334 0.004064 4.684071
v 1.535334 0.736398 4.684071
v -4.175363 0.004064 4.684072
v -4.175363 0.736398 4.684072
v 1.535334 0.004064 4.521882
v 1.535334 0.736398 4.521882
v -4.175363 0.004064 4.521883
v -4.175363 0.736398 4.521883
v 1.012032 0.004157 2.937127
v 1.012032 0.235552 2.937127
v 1.012032 0.004157 0.937127
v 1.012032 0.235552 0.937127
v 3.012032 0.004157 2.937127
v 3.012032 0.235552 2.937127
v 3.012032 0.004157 0.937127
v 3.012032 0.235552 0.937127
v 1.204314 0.235552 2.744845
v 1.204314 0.235552 1.129409
v 2.819750 0.235552 1.129409
v 2.819750 0.235552 2.744845
v 1.204314 0.071428 2.744845
v 1.204314 0.071428 1.129409
v 2.819750 0.071428 1.129409
v 2.819750 0.071428 2.744845
vt 0.375000 0.000000
vt 0.625000 0.000000
vt 0.625000 0.250000
vt 0.375000 0.250000
vt 0.625000 0.500000
vt 0.375000 0.500000
vt 0.625000 0.750000
vt 0.375000 0.750000
vt 0.625000 1.000000
vt 0.375000 1.000000
vt 0.125000 0.500000
vt 0.125000 0.750000
vt 0.875000 0.500000
vt 0.875000 0.750000
vt 0.375000 0.000000
vt 0.625000 0.000000
vt 0.625000 0.250000
vt 0.375000 0.250000
vt 0.375000 0.417292
vt 0.625000 0.417292
vt 0.625000 0.500000
vt 0.375000 0.500000
vt 0.625000 0.750000
vt 0.375000 0.750000
vt 0.375000 0.832708
vt 0.375000 0.832708
vt 0.375000 0.832708
vt 0.375000 0.832708
vt 0.625000 0.500000
vt 0.625000 0.750000
vt 0.375000 0.500000
vt 0.375000 0.750000
vt 0.375000 0.750000
vt 0.375000 0.500000
vt 0.375000 0.417292
vt 0.375000 0.250000
vt 0.375000 0.000000
vt 0.375000 0.750000
vt 0.375000 0.750000
vt 0.375000 0.250000
vt 0.375000 0.000000
vt 0.375000 0.916041
vt 0.375000 0.916041
vt 0.375000 0.916041
vt 0.375000 0.916041
vt 0.375000 0.417292
vt 0.375000 0.500000
vt 0.375000 0.750000
vt 0.375000 0.750000
vt 0.375000 0.500000
vt 0.375000 0.417292
vt 0.375000 0.250000
vt 0.375000 0.000000
vt 0.375000 0.000000
vt 0.375000 0.250000
vt 0.375000 0.250000
vt 0.375000 0.000000
vt 0.375000 0.750000
vt 0.375000 0.417292
vt 0.292292 0.500000
vt 0.375000 0.500000
vt 0.375000 0.750000
vt 0.292292 0.750000
vt 0.375000 0.000000
vt 0.375000 0.000000
vt 0.375000 0.417292
vt 0.791041 0.500000
vt 0.875000 0.500000
vt 0.875000 0.750000
vt 0.791041 0.750000
vt 0.625000 0.000000
vt 0.625000 0.250000
vt 0.625000 0.916041
vt 0.625000 0.916041
vt 0.625000 0.916041
vt 0.625000 0.916041
vt 0.625000 0.417292
vt 0.625000 0.417292
vt 0.625000 0.417292
vt 0.625000 0.500000
vt 0.625000 0.500000
vt 0.625000 0.333959
vt 0.625000 0.333959
vt 0.625000 0.000000
vt 0.625000 0.000000
vt 0.625000 0.832708
vt 0.625000 0.832708
vt 0.707708 0.500000
vt 0.707708 0.750000
vt 0.375000 0.333959
vt 0.375000 0.333959
vt 0.375000 0.832708
vt 0.375000 0.832708
vt 0.375000 0.832708
vt 0.375000 0.832708
vt 0.375000 0.916041
vt 0.375000 0.916041
vt 0.375000 0.832708
vt 0.125000 0.500000
vt 0.208959 0.500000
vt 0.208959 0.750000
vt 0.125000 0.750000
vt 0.375000 0.333959
vt 0.375000 0.916041
vt 0.375000 0.916041
vt 0.375000 0.916041
vt 0.375000 0.333959
vt 0.375000 0.333959
vt 0.375000 0.832708
vt 0.375000 0.832708
vt 0.375000 0.000000
vt 0.375000 0.000000
vt 0.375000 0.333959
vt 0.375000 0.750000
vt 0.375000 0.750000
vt 0.625000 0.333959
vt 0.625000 0.250000
vt 0.625000 0.250000
vt 0.625000 0.333959
vt 0.791041 0.500000
vt 0.875000 0.500000
vt 0.707708 0.500000
vt 0.625000 0.832708
vt 0.625000 0.750000
vt 0.625000 0.750000
vt 0.625000 0.832708
vt 0.625000 1.000000
vt 0.625000 1.000000
vt 0.707708 0.750000
vt 0.625000 1.000000
vt 0.875000 0.750000
vt 0.791041 0.750000
vt 0.625000 0.832708
vt 0.625000 0.750000
vt 0.625000 0.916041
vt 0.375000 0.916041
vt 0.625000 1.000000
vt 0.375000 1.000000
vt 0.375000 0.750000
vt 0.375000 0.832708
vt 0.375000 1.000000
vt 0.375000 0.000000
vt 0.625000 0.000000
vt 0.375000 1.000000
vt 0.375000 1.000000
vt 0.375000 1.000000
vt 0.375000 1.000000
vt 0.375000 0.916041
vt 0.375000 1.000000
vt 0.375000 0.916041
vt 0.375000 1.000000
vt 0.375000 0.916041
vt 0.375000 0.832708
vt 0.375000 0.750000
vt 0.375000 0.000000
vt 0.292292 0.750000
vt 0.208959 0.750000
vt 0.125000 0.750000
vt 0.375000 0.000000
vt 0.625000 0.250000
vt 0.375000 0.250000
vt 0.375000 0.250000
vt 0.625000 0.250000
vt 0.375000 0.750000
vt 0.375000 0.500000
vt 0.375000 0.500000
vt 0.375000 0.750000
vt 0.625000 0.750000
vt 0.625000 0.500000
vt 0.625000 0.500000
vt 0.625000 0.750000
vt 0.875000 0.500000
vt 0.875000 0.750000
vt 0.625000 0.850000
vt 0.375000 0.850000
vt 0.375000 0.850000
vt 0.625000 0.850000
vt 0.375000 0.900000
vt 0.625000 0.900000
vt 0.625000 0.900000
vt 0.375000 0.900000
vt 0.625000 0.950000
vt 0.375000 0.950000
vt 0.375000 0.833333
vt 0.625000 0.833333
vt 0.625000 0.950000
vt 0.375000 0.950000
vt 0.775000 0.750000
vt 0.825000 0.750000
vt 0.825000 0.750000
vt 0.775000 0.750000
vt 0.375000 0.800000
vt 0.625000 0.800000
vt 0.625000 0.800000
vt 0.375000 0.800000
vt 0.675000 0.750000
vt 0.725000 0.750000
vt 0.725000 0.750000
vt 0.708333 0.750000
vt 0.691667 0.750000
vt 0.675000 0.750000
vt 0.625000 0.816667
vt 0.375000 0.816667
vt 0.625000 0.816667
vt 0.375000 0.816667
vt 0.125000 0.500000
vt 0.375000 1.000000
vt 0.875000 0.500000
vt 0.625000 1.000000
vt 0.125000 0.750000
vt 0.125000 0.500000
vt 0.625000 1.000000
vt 0.625000 0.833333
vt 0.375000 0.833333
vt 0.000000 0.000000
vt 0.000000 0.000000
vt 0.000000 0.000000
vt 0.000000 0.000000
vt 0.125000 0.750000
vt 0.175000 0.500000
vt 0.225000 0.500000
vt 0.275000 0.500000
vt 0.325000 0.500000
vt 0.375000 0.500000
vt 0.375000 0.750000
vt 0.625000 0.500000
vt 0.625000 0.750000
vt 0.375000 0.450000
vt 0.375000 0.450000
vt 0.675000 0.500000
vt 0.625000 0.400000
vt 0.375000 0.400000
vt 0.375000 0.400000
vt 0.375000 0.350000
vt 0.375000 0.350000
vt 0.775000 0.500000
vt 0.625000 0.300000
vt 0.375000 0.300000
vt 0.375000 0.300000
vt 0.625000 0.350000
vt 0.375000 0.350000
vt 0.625000 0.350000
vt 0.625000 0.450000
vt 0.375000 0.450000
vt 0.625000 0.450000
vt 0.175000 0.500000
vt 0.225000 0.500000
vt 0.275000 0.500000
vt 0.325000 0.500000
vt 0.625000 0.300000
vt 0.375000 0.300000
vt 0.625000 0.400000
vt 0.375000 0.400000
vt 0.725000 0.500000
vt 0.675000 0.500000
vt 0.725000 0.500000
vt 0.175000 0.500000
vt 0.225000 0.500000
vt 0.825000 0.500000
vt 0.775000 0.500000
vt 0.825000 0.500000
vt 0.275000 0.500000
vt 0.325000 0.500000
vt 0.875000 0.750000
vt 0.875000 0.500000
vt 0.875000 0.750000
vt 0.375000 0.000000
vt 0.625000 0.000000
vt 0.625000 0.250000
vt 0.375000 0.250000
vt 0.375000 1.000000
vt 0.625000 1.000000
vt 0.375000 1.000000
vt 0.125000 0.750000
vt 0.125000 0.500000
vt 0.375000 0.000000
vt 0.625000 0.000000
vt 0.625000 0.250000
vt 0.375000 0.250000
vt 0.625000 0.500000
vt 0.375000 0.500000
vt 0.625000 0.750000
vt 0.375000 0.750000
vt 0.625000 1.000000
vt 0.375000 1.000000
vt 0.125000 0.500000
vt 0.125000 0.750000
vt 0.875000 0.500000
vt 0.875000 0.750000
vt 0.375000 0.000000
vt 0.625000 0.000000
vt 0.625000 0.250000
vt 0.375000 0.250000
vt 0.625000 0.500000
vt 0.375000 0.500000
vt 0.625000 0.750000
vt 0.375000 0.750000
vt 0.625000 1.000000
vt 0.375000 1.000000
vt 0.125000 0.500000
vt 0.125000 0.750000
vt 0.875000 0.500000
vt 0.875000 0.750000
vt 0.375000 0.000000
vt 0.625000 0.000000
vt 0.625000 0.250000
vt 0.375000 0.250000
vt 0.625000 0.500000
vt 0.375000 0.500000
vt 0.625000 0.750000
vt 0.375000 0.750000
vt 0.625000 1.000000
vt 0.375000 1.000000
vt 0.125000 0.500000
vt 0.125000 0.750000
vt 0.875000 0.500000
vt 0.875000 0.750000
vt 0.375000 0.000000
vt 0.625000 0.000000
vt 0.625000 0.250000
vt 0.375000 0.250000
vt 0.625000 0.500000
vt 0.375000 0.500000
vt 0.625000 0.750000
vt 0.375000 0.750000
vt 0.625000 1.000000
vt 0.375000 1.000000
vt 0.125000 0.500000
vt 0.125000 0.750000
vt 0.875000 0.500000
vt 0.875000 0.750000
vt 0.375000 0.000000
vt 0.625000 0.000000
vt 0.625000 0.250000
vt 0.375000 0.250000
vt 0.625000 0.500000
vt 0.375000 0.500000
vt 0.625000 0.750000
vt 0.375000 0.750000
vt 0.625000 1.000000
vt 0.375000 1.000000
vt 0.125000 0.500000
vt 0.125000 0.750000
vt 0.625000 0.000000
vt 0.625000 0.250000
vt 0.625000 0.500000
vt 0.625000 0.250000
vt 0.625000 0.500000
vt 0.625000 0.750000
vt 0.625000 1.000000
vt 0.875000 0.500000
vt 0.875000 0.750000
vt 0.625000 0.750000
vt 0.625000 0.000000
vt 0.625000 1.000000
vn -1.0000 0.0000 0.0000
vn 0.0000 0.0000 -1.0000
vn 1.0000 0.0000 0.0000
vn 0.0000 0.0000 1.0000
vn 0.0000 -1.0000 0.0000
vn 0.0000 1.0000 0.0000
vn -0.7071 -0.0000 0.7071
vn -0.3535 -0.8660 -0.3536
vn 0.7071 0.0000 -0.7071
vn -0.3162 -0.8944 -0.3162
vn -0.2405 -0.9404 -0.2405
vn -0.1135 -0.9870 -0.1135
vn -0.0135 -0.9998 -0.0135
vn 0.7067 -0.0348 0.7067
vn -0.0182 -0.9997 -0.0182
vn -0.7063 0.0467 -0.7063
vn 0.0057 -1.0000 0.0057
vn 0.0054 1.0000 0.0054
vn 0.0182 0.9997 0.0182
vn 0.0084 0.9999 0.0084
vn 0.2306 0.9453 0.2306
vn 0.1065 0.9886 0.1065
vn 0.3162 0.8944 0.3162
vn 0.3536 0.8660 0.3536
vn -0.3536 -0.8660 -0.3536
vn -0.7071 -0.0078 -0.7071
vn 0.7071 0.0078 0.7071
vn 0.0207 0.9996 0.0207
vn -0.6040 0.5200 -0.6040
vn 0.6081 0.5104 0.6080
vn 0.6080 0.5104 0.6081
vn -0.6087 -0.5088 -0.6087
vn 0.3296 0.8847 0.3296
vn 0.6124 -0.5000 0.6124
vn 0.1319 0.9824 0.1319
vn -0.6678 0.3289 -0.6678
vn 0.2152 0.9525 0.2152
usemtl Color
s off
f 1/1/1 2/2/1 4/3/1 3/4/1
f 3/4/2 4/3/2 8/5/2 7/6/2
f 7/6/3 8/5/3 6/7/3 5/8/3
f 5/8/4 6/7/4 2/9/4 1/10/4
f 3/11/5 7/6/5 5/8/5 1/12/5
f 8/5/6 4/13/6 2/14/6 6/7/6
f 86/15/7 83/16/7 10/17/7 9/18/7
f 38/19/8 41/20/8 13/21/8 12/22/8
f 12/22/9 13/21/9 11/23/9 87/24/9
f 54/25/7 58/26/7 109/27/7 106/28/7
f 11/23/9 13/21/9 36/29/9 37/30/9
f 16/31/9 17/32/9 21/33/9 20/34/9
f 38/19/10 12/22/10 16/31/10 43/35/10
f 86/15/7 9/18/7 14/36/7 15/37/7
f 12/22/9 87/24/9 17/32/9 16/31/9
f 17/32/9 87/24/9 98/38/9 100/39/9
f 15/37/7 14/36/7 18/40/7 19/41/7
f 49/42/9 45/43/9 116/44/9 117/45/9
f 43/35/11 16/31/11 20/34/11 47/46/11
f 24/47/9 25/48/9 29/49/9 28/50/9
f 47/46/12 20/34/12 24/47/12 51/51/12
f 20/34/9 21/33/9 25/48/9 24/47/9
f 19/41/7 18/40/7 22/52/7 23/53/7
f 27/54/7 26/55/7 30/56/7 31/57/7
f 23/53/7 22/52/7 26/55/7 27/54/7
f 21/33/9 17/32/9 100/39/9 104/58/9
f 51/51/13 24/47/13 28/50/13 55/59/13
f 59/60/14 32/61/14 33/62/14 62/63/14
f 86/15/7 15/37/7 102/64/7 101/65/7
f 55/59/15 28/50/15 32/61/15 59/66/15
f 28/50/9 29/49/9 33/62/9 32/61/9
f 63/67/16 35/68/16 34/69/16 66/70/16
f 10/17/7 83/16/7 34/71/7 35/72/7
f 42/73/9 66/74/9 77/75/9 75/76/9
f 41/20/7 64/77/7 69/78/7 67/79/7
f 36/29/9 13/21/9 68/80/9 70/81/9
f 41/20/17 40/82/17 63/83/17 64/77/17
f 34/71/7 83/16/7 76/84/7 78/85/7
f 42/73/18 85/86/18 65/87/18 66/74/18
f 36/29/16 64/88/16 65/89/16 37/30/16
f 64/88/16 63/67/16 66/70/16 65/89/16
f 26/55/15 56/90/15 60/91/15 30/56/15
f 56/90/15 55/59/15 59/66/15 60/91/15
f 46/92/7 50/93/7 103/94/7 99/95/7
f 58/26/19 57/96/19 61/97/19 62/98/19
f 30/99/14 60/100/14 61/101/14 31/102/14
f 60/100/14 59/60/14 62/63/14 61/101/14
f 22/52/13 52/103/13 56/90/13 26/55/13
f 52/103/13 51/51/13 55/59/13 56/90/13
f 45/43/9 88/104/9 115/105/9 116/44/9
f 54/25/20 53/106/20 57/96/20 58/26/20
f 18/40/12 48/107/12 52/103/12 22/52/12
f 48/107/12 47/46/12 51/51/12 52/103/12
f 14/36/11 44/108/11 48/107/11 18/40/11
f 44/108/11 43/35/11 47/46/11 48/107/11
f 84/109/7 46/92/7 99/95/7 97/110/7
f 46/92/21 45/43/21 49/42/21 50/93/21
f 23/53/7 27/54/7 111/111/7 108/112/7
f 50/93/22 49/42/22 53/106/22 54/25/22
f 9/18/10 39/113/10 44/108/10 14/36/10
f 39/113/10 38/19/10 43/35/10 44/108/10
f 33/62/9 29/49/9 110/114/9 113/115/9
f 84/109/23 88/104/23 45/43/23 46/92/23
f 84/109/24 85/86/24 42/73/24 88/104/24
f 9/18/25 10/17/25 40/82/25 39/113/25
f 39/113/25 40/82/25 41/20/25 38/19/25
f 73/116/17 72/117/17 71/118/17 74/119/17
f 68/80/17 67/79/17 69/78/17 70/81/17
f 10/17/7 35/72/7 71/118/7 72/117/7
f 35/68/26 63/67/26 74/120/26 71/121/26
f 64/88/26 36/29/26 70/81/26 69/122/26
f 40/82/27 10/17/27 72/117/27 73/116/27
f 63/83/9 40/82/9 73/116/9 74/119/9
f 13/21/27 41/20/27 67/79/27 68/80/27
f 81/123/28 80/124/28 79/125/28 82/126/28
f 76/127/28 75/76/28 77/75/28 78/128/28
f 37/30/29 65/89/29 82/129/29 79/125/29
f 11/23/9 37/30/9 79/125/9 80/124/9
f 85/86/30 11/23/30 80/124/30 81/123/30
f 83/130/31 42/73/31 75/76/31 76/127/31
f 66/70/29 34/69/29 78/131/29 77/132/29
f 65/87/7 85/86/7 81/123/7 82/126/7
f 11/23/32 85/86/32 96/133/32 91/134/32
f 88/104/9 42/73/9 94/135/9 95/136/9
f 95/136/33 94/135/33 90/137/33 89/138/33
f 92/139/33 91/134/33 96/133/33 93/140/33
f 42/73/32 83/130/32 90/137/32 94/135/32
f 87/24/9 11/23/9 91/134/9 92/139/9
f 85/86/7 84/109/7 93/140/7 96/133/7
f 86/141/34 88/104/34 95/136/34 89/138/34
f 84/109/34 87/24/34 92/139/34 93/140/34
f 83/16/7 86/15/7 89/142/7 90/143/7
f 115/105/23 101/144/23 102/145/23 116/44/23
f 117/45/22 105/146/22 108/147/22 118/148/22
f 116/44/21 102/145/21 105/146/21 117/45/21
f 118/148/20 108/147/20 111/149/20 119/150/20
f 119/150/35 111/149/35 114/151/35 120/152/35
f 110/114/35 109/27/35 112/153/35 113/115/35
f 107/154/20 106/28/20 109/27/20 110/114/20
f 100/39/21 99/95/21 103/94/21 104/58/21
f 104/58/22 103/94/22 106/28/22 107/154/22
f 98/38/23 97/110/23 99/95/23 100/39/23
f 19/41/7 23/53/7 108/112/7 105/155/7
f 87/24/36 84/109/36 97/110/36 98/38/36
f 62/63/37 33/62/37 113/115/37 112/156/37
f 50/93/7 54/25/7 106/28/7 103/94/7
f 29/49/9 25/48/9 107/154/9 110/114/9
f 57/96/9 53/106/9 118/148/9 119/150/9
f 25/48/9 21/33/9 104/58/9 107/154/9
f 58/26/7 62/98/7 112/153/7 109/27/7
f 53/106/9 49/42/9 117/45/9 118/148/9
f 31/102/37 61/101/37 120/157/37 114/158/37
f 27/54/7 31/57/7 114/159/7 111/111/7
f 61/97/9 57/96/9 119/150/9 120/152/9
f 15/37/7 19/41/7 105/155/7 102/64/7
f 88/104/36 86/141/36 101/144/36 115/105/36
f 124/160/1 123/161/1 168/162/1 165/163/1
f 125/164/3 127/165/3 154/166/3 155/167/3 156/168/3 153/169/3 128/170/3 126/171/3
f 128/170/6 124/172/6 122/173/6 126/171/6
f 136/174/3 133/175/3 141/176/3 144/177/3
f 130/178/1 131/179/1 139/180/1 138/181/1
f 138/181/4 139/180/4 140/182/4 137/183/4
f 145/184/4 148/185/4 144/177/4 141/176/4
f 132/186/3 129/187/3 137/183/3 140/182/3
f 131/188/5 132/189/5 140/190/5 139/191/5
f 134/192/1 135/193/1 143/194/1 142/195/1
f 135/196/5 136/197/5 144/198/5 148/199/5 147/200/5 143/201/5
f 142/195/4 143/194/4 147/202/4 146/203/4
f 146/203/3 147/202/3 151/204/3 150/205/3
f 123/206/1 121/207/1 122/173/1 124/172/1 165/208/1 166/209/1 167/210/1 168/211/1
f 121/207/4 129/187/4 132/189/4 131/179/4 130/178/4 133/175/4 136/197/4 135/193/4 134/192/4 125/164/4 126/171/4 122/212/4
f 150/205/4 151/204/4 152/213/4 149/214/4
f 148/185/1 145/184/1 149/214/1 152/213/1
f 145/215/5 146/216/5 150/217/5 149/218/5
f 133/175/5 130/178/5 138/181/5 137/183/5 129/187/5 121/219/5 123/206/5 164/220/5 163/221/5 162/222/5 161/223/5 127/165/5 125/164/5 134/192/5 142/195/5 141/176/5
f 155/167/6 154/166/6 158/224/6 159/225/6
f 127/165/3 128/170/3 153/169/3 154/166/3
f 158/224/3 157/226/3 160/227/3 159/225/3
f 153/169/5 156/168/5 160/227/5 157/226/5
f 154/166/4 153/169/4 157/226/4 158/224/4
f 156/168/2 155/167/2 159/225/2 160/227/2
f 161/228/2 169/229/2 176/230/2 175/231/2 170/232/2 162/233/2 163/234/2 171/235/2 174/236/2 173/237/2 172/238/2 164/239/2 123/161/2 124/160/2 128/170/2 127/165/2
f 174/240/1 171/235/1 179/241/1 182/242/1
f 176/243/1 169/229/1 177/244/1 184/245/1
f 163/221/2 164/220/2 172/246/2 171/247/2
f 161/223/2 162/222/2 170/248/2 169/249/2
f 181/250/2 182/242/2 179/241/2 180/251/2
f 183/252/2 184/245/2 177/244/2 178/253/2
f 175/254/5 176/230/5 184/255/5 183/256/5
f 171/247/6 172/246/6 180/257/6 179/258/6
f 170/232/3 175/231/3 183/252/3 178/253/3
f 172/238/3 173/237/3 181/250/3 180/251/3
f 173/259/5 174/236/5 182/260/5 181/261/5
f 169/249/6 170/248/6 178/262/6 177/263/6
f 166/264/5 165/208/5 188/265/5 187/266/5
f 186/267/1 187/268/1 188/269/1 185/270/1
f 167/271/2 166/209/2 187/272/2 186/273/2
f 165/163/4 168/162/4 185/270/4 188/269/4
f 168/211/6 167/210/6 186/274/6 185/275/6
f 189/276/1 190/277/1 192/278/1 191/279/1
f 191/279/2 192/278/2 196/280/2 195/281/2
f 195/281/3 196/280/3 194/282/3 193/283/3
f 193/283/4 194/282/4 190/284/4 189/285/4
f 191/286/5 195/281/5 193/283/5 189/287/5
f 196/280/6 192/288/6 190/289/6 194/282/6
f 197/290/1 198/291/1 200/292/1 199/293/1
f 199/293/2 200/292/2 204/294/2 203/295/2
f 203/295/3 204/294/3 202/296/3 201/297/3
f 201/297/4 202/296/4 198/298/4 197/299/4
f 199/300/5 203/295/5 201/297/5 197/301/5
f 204/294/6 200/302/6 198/303/6 202/296/6
f 205/304/4 206/305/4 208/306/4 207/307/4
f 207/307/1 208/306/1 212/308/1 211/309/1
f 211/309/2 212/308/2 210/310/2 209/311/2
f 209/311/3 210/310/3 206/312/3 205/313/3
f 207/314/5 211/309/5 209/311/5 205/315/5
f 212/308/6 208/316/6 206/317/6 210/310/6
f 213/318/4 214/319/4 216/320/4 215/321/4
f 215/321/1 216/320/1 220/322/1 219/323/1
f 219/323/2 220/322/2 218/324/2 217/325/2
f 217/325/3 218/324/3 214/326/3 213/327/3
f 215/328/5 219/323/5 217/325/5 213/329/5
f 220/322/6 216/330/6 214/331/6 218/324/6
f 221/332/1 222/333/1 224/334/1 223/335/1
f 223/335/2 224/334/2 228/336/2 227/337/2
f 227/337/3 228/336/3 226/338/3 225/339/3
f 225/339/4 226/338/4 222/340/4 221/341/4
f 223/342/5 227/337/5 225/339/5 221/343/5
f 224/334/6 222/333/6 229/344/6 230/345/6
f 231/346/4 230/345/4 234/347/4 235/348/4
f 222/340/6 226/338/6 232/349/6 229/350/6
f 228/336/6 224/334/6 230/345/6 231/346/6
f 226/338/6 228/336/6 231/346/6 232/349/6
f 235/348/6 234/351/6 233/352/6 236/353/6
f 232/349/1 231/346/1 235/348/1 236/353/1
f 230/345/3 229/344/3 233/354/3 234/347/3
f 229/350/2 232/349/2 236/353/2 233/355/2
