# Blender v2.80 (sub 54) OBJ File: 'port.blend'
# www.blender.org
mtllib port.mtl
o Cube_Cube.001
v -3.203688 0.000002 -2.568696
v -3.203688 1.058000 -2.568696
v -3.203688 0.000002 -4.568696
v -3.203688 1.058000 -4.568696
v 2.928621 0.000002 -2.800303
v 2.928621 0.524575 -2.800303
v 2.928621 0.000002 -4.337089
v 2.928621 0.524575 -4.337089
v -3.203688 0.000002 3.923821
v -3.203688 1.058000 3.923821
v -3.203688 0.000002 1.923821
v -3.203688 1.058000 1.923821
v 2.872567 0.000002 3.579088
v 2.872567 0.579703 3.579088
v 2.872567 0.000002 2.268554
v 2.872567 0.579703 2.268554
v -3.203688 0.000002 4.577956
v -3.203688 1.058000 4.577956
v -9.294410 0.000002 4.577956
v -9.294410 1.058000 4.577956
v -3.203689 0.000002 -5.378793
v -3.203689 1.058000 -5.378793
v -9.294411 0.000002 -5.378793
v -9.294411 1.058000 -5.378793
v -5.371421 1.058000 4.577956
v -9.253089 1.058000 4.577956
v -9.253090 1.058000 -5.378793
v -5.371421 1.058000 -5.378793
v -5.371421 4.357139 4.577956
v -9.253089 4.357139 4.577956
v -9.253090 4.357139 -5.378793
v -5.371421 4.357139 -5.378793
v -4.366513 4.357139 4.577956
v -9.360984 4.357139 4.577956
v -9.360986 4.357139 -5.378793
v -4.366514 4.357139 -5.378793
v -4.366513 4.555027 4.577956
v -9.360984 5.815050 4.577956
v -9.360986 5.815050 -5.378793
v -4.366514 4.555027 -5.378793
v -5.371421 1.058000 -1.915602
v -5.371421 1.058000 1.403314
v -5.371421 4.357139 -1.915602
v -5.371421 4.357139 1.403314
v -5.225419 1.058000 -1.915602
v -5.225419 1.058000 1.403314
v -5.225419 4.357139 -1.915602
v -5.225419 4.357139 1.403314
v -0.890372 4.311970 -0.689969
v -0.890372 5.156735 -0.689969
v -0.888187 4.311970 -0.691762
v -0.888187 5.156735 -0.691762
v -0.885693 4.311970 -0.693095
v -0.885693 5.156735 -0.693095
v -0.882988 4.311970 -0.693915
v -0.882988 5.156735 -0.693915
v -0.880174 4.311970 -0.694193
v -0.880174 5.156735 -0.694193
v -0.877361 4.311970 -0.693916
v -0.877361 5.156735 -0.693916
v -0.874655 4.311970 -0.693095
v -0.874655 5.156735 -0.693095
v -0.872162 4.311970 -0.691762
v -0.872162 5.156735 -0.691762
v -0.869976 4.311970 -0.689968
v -0.869976 5.156735 -0.689968
v -0.868183 4.311970 -0.687783
v -0.868183 5.156735 -0.687783
v -0.866850 4.311970 -0.685289
v -0.866850 5.156735 -0.685289
v -0.866029 4.311970 -0.682584
v -0.866029 5.156735 -0.682584
v -0.865752 4.311970 -0.679770
v -0.865752 5.156735 -0.679770
v -0.866029 4.311970 -0.676957
v -0.866029 5.156735 -0.676957
v -0.866850 4.311970 -0.674251
v -0.866850 5.156735 -0.674251
v -0.868183 4.311970 -0.671758
v -0.868183 5.156735 -0.671758
v -0.869976 4.311970 -0.669572
v -0.869976 5.156735 -0.669572
v -0.872162 4.311970 -0.667779
v -0.872162 5.156735 -0.667779
v -0.874655 4.311970 -0.666446
v -0.874655 5.156735 -0.666446
v -0.877361 4.311970 -0.665625
v -0.877361 5.156735 -0.665625
v -0.880174 4.311970 -0.665348
v -0.880174 5.156735 -0.665348
v -0.882988 4.311970 -0.665625
v -0.882988 5.156735 -0.665625
v -0.885694 4.311970 -0.666446
v -0.885694 5.156735 -0.666446
v -0.888187 4.311970 -0.667779
v -0.888187 5.156735 -0.667779
v -0.890373 4.311970 -0.669572
v -0.890373 5.156735 -0.669572
v -0.892166 4.311970 -0.671758
v -0.892166 5.156735 -0.671758
v -0.893499 4.311970 -0.674251
v -0.893499 5.156735 -0.674251
v -0.894319 4.311970 -0.676957
v -0.894319 5.156735 -0.676957
v -0.894597 4.311970 -0.679770
v -0.894597 5.156735 -0.679770
v -0.894320 4.311970 -0.682584
v -0.894320 5.156735 -0.682584
v -0.893499 4.311970 -0.685290
v -0.893499 5.156735 -0.685290
v -0.892166 4.311970 -0.687783
v -0.892166 5.156735 -0.687783
v -3.570714 1.057997 -3.370311
v -3.487012 5.458647 -3.286608
v -3.535912 1.057997 -3.398873
v -3.470146 5.458647 -3.300449
v -3.496205 1.057997 -3.420097
v -3.450905 5.458647 -3.310734
v -3.453120 1.057997 -3.433166
v -3.430027 5.458647 -3.317067
v -3.408315 1.057997 -3.437579
v -3.408314 5.458647 -3.319206
v -3.363508 1.057997 -3.433166
v -3.386602 5.458647 -3.317067
v -3.320424 1.057997 -3.420097
v -3.365723 5.458647 -3.310734
v -3.280717 1.057997 -3.398873
v -3.346482 5.458647 -3.300449
v -3.245914 1.057997 -3.370311
v -3.329617 5.458647 -3.286608
v -3.217352 1.057997 -3.335508
v -3.315776 5.458647 -3.269743
v -3.196128 1.057997 -3.295801
v -3.305491 5.458647 -3.250501
v -3.183059 1.057997 -3.252717
v -3.299158 5.458647 -3.229623
v -3.178646 1.057997 -3.207911
v -3.297019 5.458647 -3.207911
v -3.183059 1.057997 -3.163105
v -3.299158 5.458647 -3.186198
v -3.196128 1.057997 -3.120020
v -3.305491 5.458647 -3.165320
v -3.217352 1.057997 -3.080313
v -3.315776 5.458647 -3.146078
v -3.245914 1.057997 -3.045510
v -3.329617 5.458647 -3.129213
v -3.280717 1.057997 -3.016948
v -3.346482 5.458647 -3.115372
v -3.320424 1.057997 -2.995724
v -3.365724 5.458647 -3.105088
v -3.363508 1.057997 -2.982655
v -3.386602 5.458647 -3.098754
v -3.408315 1.057997 -2.978242
v -3.408314 5.458647 -3.096616
v -3.453121 1.057997 -2.982655
v -3.430027 5.458647 -3.098754
v -3.496205 1.057997 -2.995725
v -3.450905 5.458647 -3.105087
v -3.535912 1.057997 -3.016948
v -3.470147 5.458647 -3.115372
v -3.570715 1.057997 -3.045511
v -3.487012 5.458647 -3.129213
v -3.599277 1.057997 -3.080314
v -3.500853 5.458647 -3.146079
v -3.620500 1.057997 -3.120020
v -3.511138 5.458647 -3.165320
v -3.633570 1.057997 -3.163105
v -3.517471 5.458647 -3.186198
v -3.637983 1.057997 -3.207911
v -3.519609 5.458647 -3.207911
v -3.633570 1.057997 -3.252717
v -3.517471 5.458647 -3.229623
v -3.620500 1.057997 -3.295801
v -3.511137 5.458647 -3.250502
v -3.599277 1.057997 -3.335508
v -3.500853 5.458647 -3.269743
v -3.719734 3.646328 -3.193630
v -3.739809 3.710002 -3.213705
v -3.394033 3.646328 -3.519330
v -3.414109 3.710002 -3.539405
v -1.302441 5.196386 -1.187019
v -1.284829 5.140522 -1.169406
v -1.387423 5.196386 -1.102037
v -1.369810 5.140522 -1.084425
v -3.088781 4.148666 -2.701092
v -3.070096 4.089399 -2.682406
v -2.901495 4.148666 -2.888377
v -2.882810 4.089399 -2.869692
v -0.857488 5.158534 -0.487930
v -0.857488 5.194562 -0.487930
v -4.187117 5.107760 -3.343152
v -4.187117 5.245336 -3.343152
v -0.689176 5.158534 -0.656241
v -0.689176 5.194562 -0.656241
v -3.544398 5.107760 -3.985871
v -3.544398 5.245336 -3.985871
v -1.496367 5.207130 -1.380102
v -1.496367 5.145966 -1.380102
v -1.581348 5.207130 -1.295121
v -1.581348 5.145966 -1.295121
v -3.262486 5.232767 -2.736730
v -3.262486 5.120330 -2.736730
v -2.937976 5.232767 -3.061241
v -2.937976 5.120330 -3.061241
vt 0.375000 0.000000
vt 0.625000 0.000000
vt 0.625000 0.250000
vt 0.375000 0.250000
vt 0.625000 0.500000
vt 0.375000 0.500000
vt 0.625000 0.750000
vt 0.375000 0.750000
vt 0.625000 1.000000
vt 0.375000 1.000000
vt 0.125000 0.500000
vt 0.125000 0.750000
vt 0.875000 0.500000
vt 0.875000 0.750000
vt 0.375000 0.000000
vt 0.625000 0.000000
vt 0.625000 0.250000
vt 0.375000 0.250000
vt 0.625000 0.500000
vt 0.375000 0.500000
vt 0.625000 0.750000
vt 0.375000 0.750000
vt 0.625000 1.000000
vt 0.375000 1.000000
vt 0.125000 0.500000
vt 0.125000 0.750000
vt 0.875000 0.500000
vt 0.875000 0.750000
vt 0.375000 0.000000
vt 0.625000 0.000000
vt 0.625000 0.250000
vt 0.375000 0.250000
vt 0.375000 0.500000
vt 0.625000 0.500000
vt 0.625000 0.750000
vt 0.375000 0.750000
vt 0.625000 0.750000
vt 0.625000 0.500000
vt 0.625000 0.500000
vt 0.625000 0.750000
vt 0.625000 0.000000
vt 0.625000 0.250000
vt 0.625000 0.920289
vt 0.625000 0.920289
vt 0.625000 0.836956
vt 0.625000 0.836956
vt 0.625000 0.000000
vt 0.625000 0.250000
vt 0.625000 0.836956
vt 0.625000 0.500000
vt 0.625000 0.750000
vt 0.625000 0.000000
vt 0.625000 0.250000
vt 0.625000 0.250000
vt 0.625000 0.500000
vt 0.625000 0.750000
vt 0.625000 0.000000
vt 0.625000 1.000000
vt 0.625000 0.920289
vt 0.625000 1.000000
vt 0.625000 0.920289
vt 0.625000 0.836956
vt 1.000000 0.500000
vt 1.000000 1.000000
vt 0.968750 1.000000
vt 0.968750 0.500000
vt 0.937500 1.000000
vt 0.937500 0.500000
vt 0.906250 1.000000
vt 0.906250 0.500000
vt 0.875000 1.000000
vt 0.875000 0.500000
vt 0.843750 1.000000
vt 0.843750 0.500000
vt 0.812500 1.000000
vt 0.812500 0.500000
vt 0.781250 1.000000
vt 0.781250 0.500000
vt 0.750000 1.000000
vt 0.750000 0.500000
vt 0.718750 1.000000
vt 0.718750 0.500000
vt 0.687500 1.000000
vt 0.687500 0.500000
vt 0.656250 1.000000
vt 0.656250 0.500000
vt 0.625000 1.000000
vt 0.625000 0.500000
vt 0.593750 1.000000
vt 0.593750 0.500000
vt 0.562500 1.000000
vt 0.562500 0.500000
vt 0.531250 1.000000
vt 0.531250 0.500000
vt 0.500000 1.000000
vt 0.500000 0.500000
vt 0.468750 1.000000
vt 0.468750 0.500000
vt 0.437500 1.000000
vt 0.437500 0.500000
vt 0.406250 1.000000
vt 0.406250 0.500000
vt 0.375000 1.000000
vt 0.375000 0.500000
vt 0.343750 1.000000
vt 0.343750 0.500000
vt 0.312500 1.000000
vt 0.312500 0.500000
vt 0.281250 1.000000
vt 0.281250 0.500000
vt 0.250000 1.000000
vt 0.250000 0.500000
vt 0.218750 1.000000
vt 0.218750 0.500000
vt 0.187500 1.000000
vt 0.187500 0.500000
vt 0.156250 1.000000
vt 0.156250 0.500000
vt 0.125000 1.000000
vt 0.125000 0.500000
vt 0.093750 1.000000
vt 0.093750 0.500000
vt 0.062500 1.000000
vt 0.062500 0.500000
vt 0.296822 0.485388
vt 0.250000 0.490000
vt 0.203179 0.485389
vt 0.158156 0.471731
vt 0.116663 0.449553
vt 0.080295 0.419706
vt 0.050447 0.383337
vt 0.028269 0.341844
vt 0.014612 0.296822
vt 0.010000 0.250000
vt 0.014611 0.203179
vt 0.028269 0.158156
vt 0.050447 0.116663
vt 0.080294 0.080294
vt 0.116663 0.050447
vt 0.158156 0.028269
vt 0.203178 0.014612
vt 0.250000 0.010000
vt 0.296822 0.014612
vt 0.341844 0.028269
vt 0.383337 0.050447
vt 0.419706 0.080294
vt 0.449553 0.116663
vt 0.471731 0.158156
vt 0.485388 0.203178
vt 0.490000 0.250000
vt 0.485388 0.296822
vt 0.471731 0.341844
vt 0.449553 0.383337
vt 0.419706 0.419706
vt 0.383337 0.449553
vt 0.341844 0.471731
vt 0.031250 1.000000
vt 0.031250 0.500000
vt 0.000000 1.000000
vt 0.000000 0.500000
vt 0.750000 0.490000
vt 0.796822 0.485388
vt 0.841844 0.471731
vt 0.883337 0.449553
vt 0.919706 0.419706
vt 0.949553 0.383337
vt 0.971731 0.341844
vt 0.985388 0.296822
vt 0.990000 0.250000
vt 0.985388 0.203178
vt 0.971731 0.158156
vt 0.949553 0.116663
vt 0.919706 0.080294
vt 0.883337 0.050447
vt 0.841844 0.028269
vt 0.796822 0.014612
vt 0.750000 0.010000
vt 0.703178 0.014612
vt 0.658156 0.028269
vt 0.616663 0.050447
vt 0.580294 0.080294
vt 0.550447 0.116663
vt 0.528269 0.158156
vt 0.514611 0.203179
vt 0.510000 0.250000
vt 0.514612 0.296822
vt 0.528269 0.341844
vt 0.550447 0.383337
vt 0.580295 0.419706
vt 0.616663 0.449553
vt 0.658156 0.471731
vt 0.703179 0.485389
vt 1.000000 0.500000
vt 1.000000 1.000000
vt 0.968750 1.000000
vt 0.968750 0.500000
vt 0.937500 1.000000
vt 0.937500 0.500000
vt 0.906250 1.000000
vt 0.906250 0.500000
vt 0.875000 1.000000
vt 0.875000 0.500000
vt 0.843750 1.000000
vt 0.843750 0.500000
vt 0.812500 1.000000
vt 0.812500 0.500000
vt 0.781250 1.000000
vt 0.781250 0.500000
vt 0.750000 1.000000
vt 0.750000 0.500000
vt 0.718750 1.000000
vt 0.718750 0.500000
vt 0.687500 1.000000
vt 0.687500 0.500000
vt 0.656250 1.000000
vt 0.656250 0.500000
vt 0.625000 1.000000
vt 0.625000 0.500000
vt 0.593750 1.000000
vt 0.593750 0.500000
vt 0.562500 1.000000
vt 0.562500 0.500000
vt 0.531250 1.000000
vt 0.531250 0.500000
vt 0.500000 1.000000
vt 0.500000 0.500000
vt 0.468750 1.000000
vt 0.468750 0.500000
vt 0.437500 1.000000
vt 0.437500 0.500000
vt 0.406250 1.000000
vt 0.406250 0.500000
vt 0.375000 1.000000
vt 0.375000 0.500000
vt 0.343750 1.000000
vt 0.343750 0.500000
vt 0.312500 1.000000
vt 0.312500 0.500000
vt 0.281250 1.000000
vt 0.281250 0.500000
vt 0.250000 1.000000
vt 0.250000 0.500000
vt 0.218750 1.000000
vt 0.218750 0.500000
vt 0.187500 1.000000
vt 0.187500 0.500000
vt 0.156250 1.000000
vt 0.156250 0.500000
vt 0.125000 1.000000
vt 0.125000 0.500000
vt 0.093750 1.000000
vt 0.093750 0.500000
vt 0.062500 1.000000
vt 0.062500 0.500000
vt 0.296822 0.485388
vt 0.250000 0.490000
vt 0.203179 0.485389
vt 0.158156 0.471731
vt 0.116663 0.449553
vt 0.080295 0.419706
vt 0.050447 0.383337
vt 0.028269 0.341844
vt 0.014612 0.296822
vt 0.010000 0.250000
vt 0.014611 0.203179
vt 0.028269 0.158156
vt 0.050447 0.116663
vt 0.080294 0.080294
vt 0.116663 0.050447
vt 0.158156 0.028269
vt 0.203178 0.014612
vt 0.250000 0.010000
vt 0.296822 0.014612
vt 0.341844 0.028269
vt 0.383337 0.050447
vt 0.419706 0.080294
vt 0.449553 0.116663
vt 0.471731 0.158156
vt 0.485388 0.203178
vt 0.490000 0.250000
vt 0.485388 0.296822
vt 0.471731 0.341844
vt 0.449553 0.383337
vt 0.419706 0.419706
vt 0.383337 0.449553
vt 0.341844 0.471731
vt 0.031250 1.000000
vt 0.031250 0.500000
vt 0.000000 1.000000
vt 0.000000 0.500000
vt 0.750000 0.490000
vt 0.796822 0.485388
vt 0.841844 0.471731
vt 0.883337 0.449553
vt 0.919706 0.419706
vt 0.949553 0.383337
vt 0.971731 0.341844
vt 0.985388 0.296822
vt 0.990000 0.250000
vt 0.985388 0.203178
vt 0.971731 0.158156
vt 0.949553 0.116663
vt 0.919706 0.080294
vt 0.883337 0.050447
vt 0.841844 0.028269
vt 0.796822 0.014612
vt 0.750000 0.010000
vt 0.703178 0.014612
vt 0.658156 0.028269
vt 0.616663 0.050447
vt 0.580294 0.080294
vt 0.550447 0.116663
vt 0.528269 0.158156
vt 0.514611 0.203179
vt 0.510000 0.250000
vt 0.514612 0.296822
vt 0.528269 0.341844
vt 0.550447 0.383337
vt 0.580295 0.419706
vt 0.616663 0.449553
vt 0.658156 0.471731
vt 0.703179 0.485389
vt 0.375000 0.250000
vt 0.625000 0.250000
vt 0.625000 0.500000
vt 0.375000 0.500000
vt 0.000000 0.000000
vt 0.000000 0.000000
vt 0.000000 0.000000
vt 0.000000 0.000000
vt 0.125000 0.500000
vt 0.325890 0.561887
vt 0.174110 0.561887
vt 0.000000 0.000000
vt 0.000000 0.000000
vt 0.000000 0.000000
vt 0.000000 0.000000
vt 0.453430 0.750000
vt 0.546570 0.750000
vt 0.522418 0.500000
vt 0.477582 0.500000
vt 0.522418 0.250000
vt 0.477582 0.250000
vt 0.875000 0.500000
vt 0.825890 0.561887
vt 0.674110 0.561887
vt 0.546570 0.000000
vt 0.453430 0.000000
vt 0.453430 1.000000
vt 0.546570 1.000000
vt 0.375000 0.000000
vt 0.625000 0.000000
vt 0.625000 0.250000
vt 0.375000 0.250000
vt 0.625000 0.500000
vt 0.375000 0.500000
vt 0.625000 0.750000
vt 0.375000 0.750000
vt 0.625000 1.000000
vt 0.375000 1.000000
vt 0.125000 0.500000
vt 0.325890 0.561887
vt 0.174110 0.561887
vt 0.674110 0.561887
vt 0.711549 0.688113
vt 0.788451 0.688113
vt 0.825890 0.561887
vt 0.875000 0.500000
vt 0.875000 0.750000
vt 0.453430 0.750000
vt 0.546570 0.750000
vt 0.522418 0.500000
vt 0.477582 0.500000
vt 0.522418 0.250000
vt 0.477582 0.250000
vt 0.546570 0.000000
vt 0.453430 0.000000
vt 0.211549 0.688113
vt 0.288451 0.688113
vt 0.125000 0.750000
vt 0.453430 1.000000
vt 0.546570 1.000000
vn -1.0000 0.0000 0.0000
vn 0.0377 0.0000 -0.9993
vn 1.0000 0.0000 0.0000
vn 0.0377 0.0000 0.9993
vn 0.0000 -1.0000 0.0000
vn 0.0867 0.9962 0.0000
vn 0.0566 0.0000 -0.9984
vn 0.0566 0.0000 0.9984
vn 0.0785 0.9969 0.0000
vn 0.0000 0.0000 1.0000
vn 0.0000 0.0000 -1.0000
vn 0.0000 0.9805 0.1966
vn 0.0000 1.0000 0.0000
vn 0.2446 0.9696 -0.0000
vn -0.6344 0.0000 -0.7730
vn -0.4714 0.0000 -0.8819
vn -0.2903 0.0000 -0.9569
vn -0.0981 0.0000 -0.9952
vn 0.0980 0.0000 -0.9952
vn 0.2904 0.0000 -0.9569
vn 0.4714 0.0000 -0.8819
vn 0.6344 0.0000 -0.7730
vn 0.7730 0.0000 -0.6344
vn 0.8819 0.0000 -0.4714
vn 0.9569 0.0000 -0.2903
vn 0.9952 0.0000 -0.0980
vn 0.9952 0.0000 0.0981
vn 0.9570 0.0000 0.2902
vn 0.8819 0.0000 0.4714
vn 0.7730 0.0000 0.6344
vn 0.6344 0.0000 0.7730
vn 0.4714 0.0000 0.8819
vn 0.2903 0.0000 0.9569
vn 0.0981 0.0000 0.9952
vn -0.0980 0.0000 0.9952
vn -0.2903 0.0000 0.9569
vn -0.4714 0.0000 0.8819
vn -0.6344 0.0000 0.7730
vn -0.7730 0.0000 0.6344
vn -0.8819 0.0000 0.4714
vn -0.9569 0.0000 0.2903
vn -0.9952 0.0000 0.0980
vn -0.9952 0.0000 -0.0980
vn -0.9569 0.0000 -0.2903
vn -0.8819 0.0000 -0.4714
vn -0.7730 0.0000 -0.6344
vn -0.6342 0.0268 -0.7727
vn -0.4712 0.0268 -0.8816
vn -0.2902 0.0268 -0.9566
vn -0.0980 0.0268 -0.9948
vn 0.0980 0.0268 -0.9948
vn 0.2902 0.0268 -0.9566
vn 0.4712 0.0268 -0.8816
vn 0.6342 0.0268 -0.7727
vn 0.7727 0.0268 -0.6342
vn 0.8816 0.0268 -0.4712
vn 0.9566 0.0268 -0.2902
vn 0.9948 0.0268 -0.0980
vn 0.9948 0.0268 0.0980
vn 0.9566 0.0268 0.2902
vn 0.8816 0.0268 0.4712
vn 0.7727 0.0268 0.6342
vn 0.6342 0.0268 0.7727
vn 0.4712 0.0268 0.8816
vn 0.2902 0.0268 0.9566
vn 0.0980 0.0268 0.9948
vn -0.0980 0.0268 0.9948
vn -0.2902 0.0268 0.9566
vn -0.4712 0.0268 0.8816
vn -0.6342 0.0268 0.7727
vn -0.7727 0.0268 0.6342
vn -0.8816 0.0268 0.4712
vn -0.9566 0.0268 0.2902
vn -0.9948 0.0268 0.0980
vn -0.9948 0.0268 -0.0980
vn -0.9566 0.0268 -0.2902
vn -0.8816 0.0268 -0.4712
vn -0.7727 0.0268 -0.6342
vn -0.6458 -0.4072 -0.6458
vn 0.7708 0.0426 -0.6356
vn 0.3359 -0.8800 0.3359
vn -0.6356 0.0426 0.7708
vn -0.7251 -0.0115 0.6886
vn 0.6458 0.4072 0.6458
vn -0.3327 0.8824 -0.3327
vn 0.6886 -0.0115 -0.7251
vn -0.6510 0.0000 0.7591
vn -0.7071 0.0000 -0.7071
vn 0.7591 0.0000 -0.6510
vn 0.7071 0.0000 0.7071
vn 0.0082 -0.9999 0.0082
vn 0.0082 0.9999 0.0082
vn -0.7591 0.0000 0.6510
vn 0.6510 0.0000 -0.7591
usemtl None
s off
f 1/1/1 2/2/1 4/3/1 3/4/1
f 3/4/2 4/3/2 8/5/2 7/6/2
f 7/6/3 8/5/3 6/7/3 5/8/3
f 5/8/4 6/7/4 2/9/4 1/10/4
f 3/11/5 7/6/5 5/8/5 1/12/5
f 8/5/6 4/13/6 2/14/6 6/7/6
f 9/15/1 10/16/1 12/17/1 11/18/1
f 11/18/7 12/17/7 16/19/7 15/20/7
f 15/20/3 16/19/3 14/21/3 13/22/3
f 13/22/8 14/21/8 10/23/8 9/24/8
f 11/25/5 15/20/5 13/22/5 9/26/5
f 16/19/9 12/27/9 10/28/9 14/21/9
f 17/29/10 18/30/10 20/31/10 19/32/10
f 23/33/11 24/34/11 22/35/11 21/36/11
f 28/37/11 27/38/11 31/39/11 32/40/11
f 22/35/12 24/34/12 27/38/12 28/37/12
f 20/31/10 18/30/10 25/41/10 26/42/10
f 44/43/13 48/44/13 47/45/13 43/46/13
f 26/42/10 25/41/10 29/47/10 30/48/10
f 41/49/3 28/37/3 32/40/3 43/46/3
f 27/38/1 26/42/1 30/48/1 31/39/1
f 32/40/5 31/39/5 35/50/5 36/51/5
f 30/48/10 29/47/10 33/52/10 34/53/10
f 35/50/1 34/53/1 38/54/1 39/55/1
f 36/51/11 35/50/11 39/55/11 40/56/11
f 34/53/10 33/52/10 37/57/10 38/54/10
f 37/57/14 40/56/14 39/55/14 38/54/14
f 36/51/3 40/56/3 37/57/3 33/52/3
f 34/53/5 35/50/5 31/39/5 30/48/5
f 25/58/3 42/59/3 44/43/3 29/60/3
f 44/43/10 42/59/10 46/61/10 48/44/10
f 19/32/1 20/31/1 24/34/1 23/33/1
f 24/34/13 20/31/13 26/42/13 27/38/13
f 19/32/5 23/33/5 21/36/5 17/29/5
f 46/61/3 45/62/3 47/45/3 48/44/3
f 43/46/11 47/45/11 45/62/11 41/49/11
f 42/59/5 41/49/5 45/62/5 46/61/5
f 17/29/3 21/36/3 22/35/3 18/30/3
f 18/30/13 22/35/13 28/37/13 25/41/13
f 29/47/5 44/43/5 43/46/5 32/40/5 36/51/5 33/52/5
f 49/63/15 50/64/15 52/65/15 51/66/15
f 51/66/16 52/65/16 54/67/16 53/68/16
f 53/68/17 54/67/17 56/69/17 55/70/17
f 55/70/18 56/69/18 58/71/18 57/72/18
f 57/72/19 58/71/19 60/73/19 59/74/19
f 59/74/20 60/73/20 62/75/20 61/76/20
f 61/76/21 62/75/21 64/77/21 63/78/21
f 63/78/22 64/77/22 66/79/22 65/80/22
f 65/80/23 66/79/23 68/81/23 67/82/23
f 67/82/24 68/81/24 70/83/24 69/84/24
f 69/84/25 70/83/25 72/85/25 71/86/25
f 71/86/26 72/85/26 74/87/26 73/88/26
f 73/88/27 74/87/27 76/89/27 75/90/27
f 75/90/28 76/89/28 78/91/28 77/92/28
f 77/92/29 78/91/29 80/93/29 79/94/29
f 79/94/30 80/93/30 82/95/30 81/96/30
f 81/96/31 82/95/31 84/97/31 83/98/31
f 83/98/32 84/97/32 86/99/32 85/100/32
f 85/100/33 86/99/33 88/101/33 87/102/33
f 87/102/34 88/101/34 90/103/34 89/104/34
f 89/104/35 90/103/35 92/105/35 91/106/35
f 91/106/36 92/105/36 94/107/36 93/108/36
f 93/108/37 94/107/37 96/109/37 95/110/37
f 95/110/38 96/109/38 98/111/38 97/112/38
f 97/112/39 98/111/39 100/113/39 99/114/39
f 99/114/40 100/113/40 102/115/40 101/116/40
f 101/116/41 102/115/41 104/117/41 103/118/41
f 103/118/42 104/117/42 106/119/42 105/120/42
f 105/120/43 106/119/43 108/121/43 107/122/43
f 107/122/44 108/121/44 110/123/44 109/124/44
f 52/125/13 50/126/13 112/127/13 110/128/13 108/129/13 106/130/13 104/131/13 102/132/13 100/133/13 98/134/13 96/135/13 94/136/13 92/137/13 90/138/13 88/139/13 86/140/13 84/141/13 82/142/13 80/143/13 78/144/13 76/145/13 74/146/13 72/147/13 70/148/13 68/149/13 66/150/13 64/151/13 62/152/13 60/153/13 58/154/13 56/155/13 54/156/13
f 109/124/45 110/123/45 112/157/45 111/158/45
f 111/158/46 112/157/46 50/159/46 49/160/46
f 49/161/5 51/162/5 53/163/5 55/164/5 57/165/5 59/166/5 61/167/5 63/168/5 65/169/5 67/170/5 69/171/5 71/172/5 73/173/5 75/174/5 77/175/5 79/176/5 81/177/5 83/178/5 85/179/5 87/180/5 89/181/5 91/182/5 93/183/5 95/184/5 97/185/5 99/186/5 101/187/5 103/188/5 105/189/5 107/190/5 109/191/5 111/192/5
f 113/193/47 114/194/47 116/195/47 115/196/47
f 115/196/48 116/195/48 118/197/48 117/198/48
f 117/198/49 118/197/49 120/199/49 119/200/49
f 119/200/50 120/199/50 122/201/50 121/202/50
f 121/202/51 122/201/51 124/203/51 123/204/51
f 123/204/52 124/203/52 126/205/52 125/206/52
f 125/206/53 126/205/53 128/207/53 127/208/53
f 127/208/54 128/207/54 130/209/54 129/210/54
f 129/210/55 130/209/55 132/211/55 131/212/55
f 131/212/56 132/211/56 134/213/56 133/214/56
f 133/214/57 134/213/57 136/215/57 135/216/57
f 135/216/58 136/215/58 138/217/58 137/218/58
f 137/218/59 138/217/59 140/219/59 139/220/59
f 139/220/60 140/219/60 142/221/60 141/222/60
f 141/222/61 142/221/61 144/223/61 143/224/61
f 143/224/62 144/223/62 146/225/62 145/226/62
f 145/226/63 146/225/63 148/227/63 147/228/63
f 147/228/64 148/227/64 150/229/64 149/230/64
f 149/230/65 150/229/65 152/231/65 151/232/65
f 151/232/66 152/231/66 154/233/66 153/234/66
f 153/234/67 154/233/67 156/235/67 155/236/67
f 155/236/68 156/235/68 158/237/68 157/238/68
f 157/238/69 158/237/69 160/239/69 159/240/69
f 159/240/70 160/239/70 162/241/70 161/242/70
f 161/242/71 162/241/71 164/243/71 163/244/71
f 163/244/72 164/243/72 166/245/72 165/246/72
f 165/246/73 166/245/73 168/247/73 167/248/73
f 167/248/74 168/247/74 170/249/74 169/250/74
f 169/250/75 170/249/75 172/251/75 171/252/75
f 171/252/76 172/251/76 174/253/76 173/254/76
f 116/255/13 114/256/13 176/257/13 174/258/13 172/259/13 170/260/13 168/261/13 166/262/13 164/263/13 162/264/13 160/265/13 158/266/13 156/267/13 154/268/13 152/269/13 150/270/13 148/271/13 146/272/13 144/273/13 142/274/13 140/275/13 138/276/13 136/277/13 134/278/13 132/279/13 130/280/13 128/281/13 126/282/13 124/283/13 122/284/13 120/285/13 118/286/13
f 173/254/77 174/253/77 176/287/77 175/288/77
f 175/288/78 176/287/78 114/289/78 113/290/78
f 113/291/5 115/292/5 117/293/5 119/294/5 121/295/5 123/296/5 125/297/5 127/298/5 129/299/5 131/300/5 133/301/5 135/302/5 137/303/5 139/304/5 141/305/5 143/306/5 145/307/5 147/308/5 149/309/5 151/310/5 153/311/5 155/312/5 157/313/5 159/314/5 161/315/5 163/316/5 165/317/5 167/318/5 169/319/5 171/320/5 173/321/5 175/322/5
f 177/323/79 178/324/79 180/325/79 179/326/79
f 180/327/80 187/328/80 188/329/80 179/330/80
f 177/331/81 179/326/81 188/332/81 186/333/81
f 185/334/82 178/335/82 177/336/82 186/337/82
f 182/338/83 181/339/83 187/340/83 188/341/83
f 188/341/84 187/340/84 185/342/84 186/343/84
f 178/344/85 185/345/85 187/346/85 180/325/85
f 186/343/86 185/342/86 183/347/86 184/348/86
f 184/349/79 183/350/79 181/339/79 182/338/79
f 189/351/87 190/352/87 192/353/87 191/354/87
f 191/354/88 192/353/88 196/355/88 195/356/88
f 195/356/89 196/355/89 194/357/89 193/358/89
f 193/358/90 194/357/90 190/359/90 189/360/90
f 191/361/91 195/356/91 204/362/91 202/363/91
f 196/355/92 203/364/92 197/365/92 199/366/92 201/367/92 192/368/92 190/369/92 194/357/92
f 198/370/93 197/371/93 203/372/93 204/373/93
f 204/373/90 203/372/90 201/374/90 202/375/90
f 192/368/92 201/367/92 203/364/92 196/355/92
f 202/375/94 201/374/94 199/376/94 200/377/94
f 202/363/91 200/378/91 198/379/91 204/362/91 195/356/91 193/358/91 189/380/91 191/361/91
f 200/381/88 199/382/88 197/371/88 198/370/88
